<?xml version="1.0" encoding="utf-8"?>
<!-- Generator: Adobe Illustrator 21.1.0, SVG Export Plug-In . SVG Version: 6.00 Build 0)  -->
<svg version="1.1" id="Слой_1" xmlns="http://www.w3.org/2000/svg" xmlns:xlink="http://www.w3.org/1999/xlink" x="0px" y="0px"
	 viewBox="0 0 125 125" style="enable-background:new 0 0 125 125;" xml:space="preserve">
<style type="text/css">
	.st0{fill:#FFFFFF;}
</style>
<g>
	<path class="st0" d="M62.5,0.3C28.1,0.3,0.3,28.1,0.3,62.5s27.8,62.2,62.2,62.2c34.4,0,62.2-27.8,62.2-62.2S96.9,0.3,62.5,0.3z
		 M62.5,121.3C30,121.3,3.7,95,3.7,62.5S30,3.7,62.5,3.7c32.5,0,58.8,26.3,58.8,58.8S95,121.3,62.5,121.3z"/>
	<path class="st0" d="M113.6,77.8c-0.4-2.3-0.5-3.6-0.4-4.3c0.3-0.1,0.7-0.1,1.1-0.3c3.8-1.3,3.5-5.2,3.4-7.3
		c-0.1-0.9-0.2-3.1-7.2-12c-7.5-10-9-17.4-9.1-17.5l-0.2-0.8l-0.5-0.7c-2.6-3.3-9.7-4.5-12.6-4.9l-0.3,0c-5.3-0.2-8.8,1.1-10,1.7
		c-9.3,2.8-12,7.1-12.4,7.9L64.6,41l0.5,1.5c0.7,2,0.5,3,0.3,3.2l-0.1,0.1c-1.2,0.8-3.8,3.5-5.7,5.6l-0.1,0.2c-1.9,2.3-4.9,3-4.9,3
		L52.1,55l-0.3,2.5c-0.3,2.4,0.5,4,1.2,4.8c0.1,0.1,0.2,0.2,0.3,0.3c0,0,0,0.1,0,0.1L53,63.6l0.6,1.2c4.5,8.9,12.5,8.3,13.8,8.1
		c3.3-0.4,5-0.4,5.9-0.4c0.7,2.3,1.7,7.7,1.6,9.6c-0.1,2.1-0.9,4.7-1.3,5.5l-1.9,4.8h45.2l0.8-3.3C118,85.4,115,80,113.6,77.8z
		 M76.9,89c0,0,1.4-3.5,1.5-6.6c0.1-3.2-1.8-12-2.5-12.5c-0.8-0.5-0.5-1.2-8.9-0.3c0,0-6.6,1.1-10.3-6.2c0,0,0.1-0.5,0-2.6
		c0,0-1.8-0.1-1.5-2.8c0,0,4.2-0.9,6.9-4.2c0,0,3.9-4.3,5-5c0,0,3.3-1.5,1.2-7.4c0,0,2-3.7,10.6-6.3c0,0,3-1.7,8.5-1.5
		c0,0,8.3,1,10.3,3.6c0,0,1.5,8,9.7,19c0,0,6.4,8,6.5,10.1s0.2,3.3-1.1,3.7c-1.3,0.4-2-0.3-2.8,1.2c-0.9,1.5-0.6,4.6,0.1,8
		c0,0,4.1,6.6,3.9,9.9H76.9z"/>
	<path class="st0" d="M55,58.9l-1.2-0.4c0.1-0.3,0.2-0.6,0.3-0.9c1.6-2.5,1.7-5.4,0.3-7.9c-0.2-2.1-1.3-4.1-2.5-5.8
		c0.7-1,1.1-2.3,1.2-3.7c0-1,0.7-3.2,1.1-4.4l2-5.8l-6.2,0.5c-5.9,0.5-9.4,3.8-11.2,6.3c-4.2-0.5-9.8,0.1-12.5,1.7h0
		c-2.2,1.3-4.4,4.4-7.8,9.4c-1,1.5-2.1,3-3,4.3c-2.9,3.9-7,9.7-8.1,11.3c-3.1,3-3.4,10.2-0.9,21.4l0.7,3.1l3.2,0
		c4,0.1,16,2.8,18.5,3.6c8.5,3.5,14,3.9,16,3.9c0.4,0,0.7,0,0.8,0l2.3-0.2l1-2.1c2.6-5.3-2.6-11.7-4.3-13.5l-0.3-0.4l-0.4-0.3
		c-0.4-0.3-1.5-1.7-2.3-3c-0.2-1-0.2-2.9-0.1-4.4H45l0.5,0c3.4-0.4,5.7-2.3,6.7-4c0.3-0.4,0.6-0.8,0.8-1.1c0.5-0.3,1-0.7,1.3-1.2
		c1.4-1.8,1.1-3.8,1-4.4L55,58.9z M50,63.7c0,0-0.2,0.9-1.2,1.9c0,0-0.8,2-3.9,2.3c0,0-4.7,0-6.6,0c-0.8,0-1.4,7.1-0.5,10
		c0,0,2.3,3.8,3.9,4.8c0,0,5.3,5.7,3.7,9c0,0-5.2,0.4-14.9-3.6c-0.1,0-0.2-0.1-0.3-0.1c-2.7-0.9-15.2-3.7-19.7-3.8
		c0,0-3.4-15.5,0-17.8c0,0,5-7.1,8.3-11.6c3.4-4.6,7.4-11.3,9.6-12.6c2.1-1.3,9-1.9,12.1-0.7c0.2,0.1,0.4,0,0.5-0.2
		c0.6-1.4,3.2-6,9.4-6.6c0,0-1.2,3.5-1.3,5.6c-0.1,2.2-2.7,3.6-2.7,3.6s3.7,3.5,4,6.4c0,0.5,0.2,1,0.5,1.5c0.5,0.8,0.9,2.3-0.5,4.1
		c0,0-1.1,3.4-1.9,3.6c-0.7,0.2,1.5,2.1,2.8,2.5C51.4,61.9,51.7,63.6,50,63.7z"/>
	<g>
		<path class="st0" d="M75.9,69.8c-0.8-0.5-0.5-1.2-8.9-0.3c0,0-6.6,1.1-10.3-6.2c0,0,0.1-0.5,0-2.6c0,0-1.8-0.1-1.5-2.8
			c0,0,4.2-0.9,6.9-4.2c0,0,3.9-4.3,5-5c0,0,3.3-1.5,1.2-7.4c0,0,1.4-2.5,6.7-4.9V3.1H47.5v32.3c0.9-0.3,1.8-0.5,2.8-0.6
			c0,0-1.2,3.5-1.3,5.6c0,1.2-0.9,2.2-1.6,2.8v1.9c1.1,1.3,2.7,3.4,2.9,5.3c0,0.5,0.2,1,0.5,1.5c0.5,0.8,0.9,2.3-0.5,4.1
			c0,0-1,1.9-1.2,2.9c-0.1,0.5,0.5,1.9,2,2.9c0,0.2,0.1,1.8-1.3,2.1c0,0-0.2,0.9-1.2,1.9c0,0-0.8,2-3.9,2.3c0,0-4.7,0-6.6,0
			c-0.7,0-1.2,4.8-0.8,8.1h10.1v45.3h27.6V76.2h2.6C77.1,73.1,76.3,70.1,75.9,69.8z"/>
		<path class="st0" d="M10.4,66.6c0,0,5-7.1,8.3-11.6c1.4-1.9,2.9-4.2,4.4-6.3H3.2v27.6h5.8C8.7,72.1,8.7,67.7,10.4,66.6z"/>
		<path class="st0" d="M102.8,48.6c1.3,2.3,2.9,4.8,4.9,7.5c0,0,6.4,8,6.5,10.1s0.2,3.3-1.1,3.7c-1.3,0.4-2-0.3-2.8,1.2
			c-0.6,1-0.7,2.9-0.4,5.1h11.5V48.6H102.8z"/>
	</g>
</g>
</svg>
